<svg width="35" height="35" viewBox="0 0 35 35" fill="none" xmlns="http://www.w3.org/2000/svg">
<circle opacity="0.9" cx="17.7805" cy="17.1724" r="16.854" fill="#5D3085"/>
<path d="M17.4364 10.0869C19.6378 10.0869 19.9129 10.0869 20.8072 10.1557C23.0773 10.2245 24.1092 11.3251 24.178 13.5265C24.2468 14.4208 24.2468 14.6271 24.2468 16.8285C24.2468 19.0298 24.2468 19.305 24.178 20.1305C24.1092 22.3318 23.0086 23.4325 20.8072 23.5013C19.9129 23.5701 19.7065 23.5701 17.4364 23.5701C15.2351 23.5701 14.9599 23.5701 14.1344 23.5013C11.8643 23.4325 10.8324 22.3318 10.7636 20.1305C10.6948 19.2362 10.6948 19.0298 10.6948 16.8285C10.6948 14.6271 10.6948 14.352 10.7636 13.5265C10.8324 11.3251 11.9331 10.2245 14.1344 10.1557C14.9599 10.0869 15.2351 10.0869 17.4364 10.0869ZM17.4364 8.57345C15.1663 8.57345 14.8911 8.57345 14.0656 8.64225C11.0388 8.77983 9.38777 10.4308 9.25019 13.4577C9.1814 14.2832 9.1814 14.5583 9.1814 16.8285C9.1814 19.0986 9.1814 19.3738 9.25019 20.1993C9.38777 23.2261 11.0388 24.8771 14.0656 25.0147C14.8911 25.0835 15.1663 25.0835 17.4364 25.0835C19.7065 25.0835 19.9817 25.0835 20.8072 25.0147C23.8341 24.8771 25.4851 23.2261 25.6226 20.1993C25.6914 19.3738 25.6914 19.0986 25.6914 16.8285C25.6914 14.5583 25.6914 14.2832 25.6226 13.4577C25.4851 10.4308 23.8341 8.77983 20.8072 8.64225C19.9817 8.57345 19.7065 8.57345 17.4364 8.57345ZM17.4364 12.5634C15.0975 12.5634 13.1713 14.4896 13.1713 16.8285C13.1713 19.1674 15.0975 21.0936 17.4364 21.0936C19.7753 21.0936 21.7015 19.1674 21.7015 16.8285C21.7015 14.4896 19.7753 12.5634 17.4364 12.5634ZM17.4364 19.5801C15.923 19.5801 14.6847 18.3419 14.6847 16.8285C14.6847 15.3151 15.923 14.0768 17.4364 14.0768C18.9498 14.0768 20.1881 15.3151 20.1881 16.8285C20.1881 18.3419 18.9498 19.5801 17.4364 19.5801ZM21.8391 11.4627C21.2888 11.4627 20.876 11.8755 20.876 12.4258C20.876 12.9761 21.2888 13.3889 21.8391 13.3889C22.3894 13.3889 22.8022 12.9761 22.8022 12.4258C22.8022 11.8755 22.3894 11.4627 21.8391 11.4627Z" fill="#FAFCFE"/>
</svg>
